<svg width="115" height="13" viewBox="0 0 115 13" fill="none" xmlns="http://www.w3.org/2000/svg">
<path d="M6.72 12L4.384 7.76H3.728V12H0.992V0.768H5.584C6.46933 0.768 7.22133 0.922666 7.84 1.232C8.46933 1.54133 8.93867 1.968 9.248 2.512C9.55733 3.04533 9.712 3.64267 9.712 4.304C9.712 5.05067 9.49867 5.71733 9.072 6.304C8.656 6.89067 8.03733 7.30667 7.216 7.552L9.808 12H6.72ZM3.728 5.824H5.424C5.92533 5.824 6.29867 5.70133 6.544 5.456C6.8 5.21067 6.928 4.864 6.928 4.416C6.928 3.98933 6.8 3.65333 6.544 3.408C6.29867 3.16267 5.92533 3.04 5.424 3.04H3.728V5.824ZM15.4935 12.128C14.6188 12.128 13.8295 11.9413 13.1255 11.568C12.4322 11.1947 11.8828 10.6613 11.4775 9.968C11.0828 9.27467 10.8855 8.464 10.8855 7.536C10.8855 6.61867 11.0882 5.81333 11.4935 5.12C11.8988 4.416 12.4535 3.87733 13.1575 3.504C13.8615 3.13067 14.6508 2.944 15.5255 2.944C16.4002 2.944 17.1895 3.13067 17.8935 3.504C18.5975 3.87733 19.1522 4.416 19.5575 5.12C19.9628 5.81333 20.1655 6.61867 20.1655 7.536C20.1655 8.45333 19.9575 9.264 19.5415 9.968C19.1362 10.6613 18.5762 11.1947 17.8615 11.568C17.1575 11.9413 16.3682 12.128 15.4935 12.128ZM15.4935 9.76C16.0162 9.76 16.4588 9.568 16.8215 9.184C17.1948 8.8 17.3815 8.25067 17.3815 7.536C17.3815 6.82133 17.2002 6.272 16.8375 5.888C16.4855 5.504 16.0482 5.312 15.5255 5.312C14.9922 5.312 14.5495 5.504 14.1975 5.888C13.8455 6.26133 13.6695 6.81067 13.6695 7.536C13.6695 8.25067 13.8402 8.8 14.1815 9.184C14.5335 9.568 14.9708 9.76 15.4935 9.76ZM24.353 4.336C24.609 3.92 24.977 3.584 25.457 3.328C25.937 3.072 26.4863 2.944 27.105 2.944C27.841 2.944 28.5077 3.13067 29.105 3.504C29.7023 3.87733 30.1717 4.41067 30.513 5.104C30.865 5.79733 31.041 6.60267 31.041 7.52C31.041 8.43733 30.865 9.248 30.513 9.952C30.1717 10.6453 29.7023 11.184 29.105 11.568C28.5077 11.9413 27.841 12.128 27.105 12.128C26.4757 12.128 25.9263 12.0053 25.457 11.76C24.9877 11.504 24.6197 11.168 24.353 10.752V12H21.617V0.16H24.353V4.336ZM28.257 7.52C28.257 6.83733 28.065 6.304 27.681 5.92C27.3077 5.52533 26.8437 5.328 26.289 5.328C25.745 5.328 25.281 5.52533 24.897 5.92C24.5237 6.31467 24.337 6.85333 24.337 7.536C24.337 8.21867 24.5237 8.75733 24.897 9.152C25.281 9.54667 25.745 9.744 26.289 9.744C26.833 9.744 27.297 9.54667 27.681 9.152C28.065 8.74667 28.257 8.20267 28.257 7.52ZM39.883 9.44L41.819 3.072H44.731L41.563 12H38.187L35.019 3.072H37.947L39.883 9.44ZM45.3386 7.52C45.3386 6.60267 45.5093 5.79733 45.8506 5.104C46.2026 4.41067 46.6773 3.87733 47.2746 3.504C47.872 3.13067 48.5386 2.944 49.2746 2.944C49.904 2.944 50.4533 3.072 50.9226 3.328C51.4026 3.584 51.7706 3.92 52.0266 4.336V3.072H54.7626V12H52.0266V10.736C51.76 11.152 51.3866 11.488 50.9066 11.744C50.4373 12 49.888 12.128 49.2586 12.128C48.5333 12.128 47.872 11.9413 47.2746 11.568C46.6773 11.184 46.2026 10.6453 45.8506 9.952C45.5093 9.248 45.3386 8.43733 45.3386 7.52ZM52.0266 7.536C52.0266 6.85333 51.8346 6.31467 51.4506 5.92C51.0773 5.52533 50.6186 5.328 50.0746 5.328C49.5306 5.328 49.0666 5.52533 48.6826 5.92C48.3093 6.304 48.1226 6.83733 48.1226 7.52C48.1226 8.20267 48.3093 8.74667 48.6826 9.152C49.0666 9.54667 49.5306 9.744 50.0746 9.744C50.6186 9.744 51.0773 9.54667 51.4506 9.152C51.8346 8.75733 52.0266 8.21867 52.0266 7.536ZM62.182 2.976C63.2273 2.976 64.0593 3.31733 64.678 4C65.3073 4.672 65.622 5.6 65.622 6.784V12H62.902V7.152C62.902 6.55467 62.7473 6.09067 62.438 5.76C62.1287 5.42933 61.7127 5.264 61.19 5.264C60.6673 5.264 60.2513 5.42933 59.942 5.76C59.6327 6.09067 59.478 6.55467 59.478 7.152V12H56.742V3.072H59.478V4.256C59.7553 3.86133 60.1287 3.552 60.598 3.328C61.0673 3.09333 61.5953 2.976 62.182 2.976ZM77.7139 6.24C78.3645 6.37867 78.8872 6.704 79.2819 7.216C79.6765 7.71733 79.8739 8.29333 79.8739 8.944C79.8739 9.88267 79.5432 10.6293 78.8819 11.184C78.2312 11.728 77.3192 12 76.1459 12H70.9139V0.768H75.9699C77.1112 0.768 78.0019 1.02933 78.6419 1.552C79.2925 2.07467 79.6179 2.784 79.6179 3.68C79.6179 4.34133 79.4419 4.89067 79.0899 5.328C78.7485 5.76533 78.2899 6.06933 77.7139 6.24ZM73.6499 5.312H75.4419C75.8899 5.312 76.2312 5.216 76.4659 5.024C76.7112 4.82133 76.8339 4.528 76.8339 4.144C76.8339 3.76 76.7112 3.46667 76.4659 3.264C76.2312 3.06133 75.8899 2.96 75.4419 2.96H73.6499V5.312ZM75.6659 9.792C76.1245 9.792 76.4765 9.69067 76.7219 9.488C76.9779 9.27467 77.1059 8.97067 77.1059 8.576C77.1059 8.18133 76.9725 7.872 76.7059 7.648C76.4499 7.424 76.0925 7.312 75.6339 7.312H73.6499V9.792H75.6659ZM80.9168 7.52C80.9168 6.60267 81.0874 5.79733 81.4288 5.104C81.7808 4.41067 82.2554 3.87733 82.8528 3.504C83.4501 3.13067 84.1168 2.944 84.8528 2.944C85.4821 2.944 86.0314 3.072 86.5008 3.328C86.9808 3.584 87.3488 3.92 87.6048 4.336V3.072H90.3408V12H87.6048V10.736C87.3381 11.152 86.9648 11.488 86.4848 11.744C86.0154 12 85.4661 12.128 84.8368 12.128C84.1114 12.128 83.4501 11.9413 82.8528 11.568C82.2554 11.184 81.7808 10.6453 81.4288 9.952C81.0874 9.248 80.9168 8.43733 80.9168 7.52ZM87.6048 7.536C87.6048 6.85333 87.4128 6.31467 87.0288 5.92C86.6554 5.52533 86.1968 5.328 85.6528 5.328C85.1088 5.328 84.6448 5.52533 84.2608 5.92C83.8874 6.304 83.7008 6.83733 83.7008 7.52C83.7008 8.20267 83.8874 8.74667 84.2608 9.152C84.6448 9.54667 85.1088 9.744 85.6528 9.744C86.1968 9.744 86.6554 9.54667 87.0288 9.152C87.4128 8.75733 87.6048 8.21867 87.6048 7.536ZM97.7761 12L95.0561 8.256V12H92.3201V0.16H95.0561V6.704L97.7601 3.072H101.136L97.4241 7.552L101.168 12H97.7761ZM110.627 7.392C110.627 7.648 110.611 7.91467 110.579 8.192H104.387C104.429 8.74667 104.605 9.17333 104.915 9.472C105.235 9.76 105.624 9.904 106.083 9.904C106.765 9.904 107.24 9.616 107.507 9.04H110.419C110.269 9.62667 109.997 10.1547 109.603 10.624C109.219 11.0933 108.733 11.4613 108.147 11.728C107.56 11.9947 106.904 12.128 106.179 12.128C105.304 12.128 104.525 11.9413 103.843 11.568C103.16 11.1947 102.627 10.6613 102.243 9.968C101.859 9.27467 101.667 8.464 101.667 7.536C101.667 6.608 101.853 5.79733 102.227 5.104C102.611 4.41067 103.144 3.87733 103.827 3.504C104.509 3.13067 105.293 2.944 106.179 2.944C107.043 2.944 107.811 3.12533 108.483 3.488C109.155 3.85067 109.677 4.368 110.051 5.04C110.435 5.712 110.627 6.496 110.627 7.392ZM107.827 6.672C107.827 6.20267 107.667 5.82933 107.347 5.552C107.027 5.27467 106.627 5.136 106.147 5.136C105.688 5.136 105.299 5.26933 104.979 5.536C104.669 5.80267 104.477 6.18133 104.403 6.672H107.827ZM114.806 0.16V12H112.07V0.16H114.806Z" fill="#F6F6F6"/>
</svg>
